<svg width="57" height="48" viewBox="0 0 57 48" fill="none" xmlns="http://www.w3.org/2000/svg">
<rect width="56" height="48" transform="translate(0.5)" fill="#F7F7F7"/>
<path d="M31.5 24C31.5 24.7956 31.1839 25.5587 30.6213 26.1213C30.0587 26.6839 29.2956 27 28.5 27C27.7044 27 26.9413 26.6839 26.3787 26.1213C25.8161 25.5587 25.5 24.7956 25.5 24C25.5 23.2044 25.8161 22.4413 26.3787 21.8787C26.9413 21.3161 27.7044 21 28.5 21C29.2956 21 30.0587 21.3161 30.6213 21.8787C31.1839 22.4413 31.5 23.2044 31.5 24Z" stroke="#7D7D7D" stroke-width="2" stroke-linecap="round" stroke-linejoin="round"/>
<path d="M18.5 24C20.1 19.903 23.836 17 28.5 17C33.164 17 36.9 19.903 38.5 24C36.9 28.097 33.164 31 28.5 31C23.836 31 20.1 28.097 18.5 24Z" stroke="#7D7D7D" stroke-width="2" stroke-linecap="round" stroke-linejoin="round"/>
<line x1="1" y1="2.18557e-08" x2="0.999998" y2="48" stroke="#C6C6C6"/>
</svg>
